<?xml version="1.0" standalone="no"?>
<!DOCTYPE svg PUBLIC "-//W3C//DTD SVG 20010904//EN"
 "http://www.w3.org/TR/2001/REC-SVG-20010904/DTD/svg10.dtd">
<svg version="1.0" xmlns="http://www.w3.org/2000/svg"
 width="1773.000000pt" height="1773.000000pt" viewBox="0 0 1773.000000 1773.000000"
 preserveAspectRatio="xMidYMid meet">
<metadata>
Created by potrace 1.14, written by Peter Selinger 2001-2017
</metadata>
<g transform="translate(0.000000,1773.000000) scale(0.100000,-0.100000)"
fill="#000000" stroke="none">
<path d="M12905 17506 c-27 -12 -54 -24 -60 -26 -21 -6 -141 -51 -305 -114
-52 -21 -131 -51 -175 -67 -44 -17 -89 -34 -100 -39 -11 -5 -137 -54 -280
-108 -799 -306 -1342 -514 -1360 -522 -11 -5 -139 -55 -285 -110 -146 -56
-292 -112 -325 -125 -33 -13 -139 -53 -235 -90 -96 -36 -184 -70 -195 -75 -11
-5 -81 -32 -155 -60 -74 -28 -202 -77 -285 -109 -163 -64 -591 -228 -775 -298
-63 -24 -124 -47 -135 -53 -11 -5 -76 -30 -145 -56 -69 -26 -177 -67 -240 -91
-63 -25 -171 -66 -240 -92 -240 -92 -606 -233 -695 -268 -105 -41 -198 -77
-205 -78 -3 -1 -14 -5 -25 -10 -28 -11 -238 -92 -310 -120 -111 -41 -349 -133
-440 -168 -49 -20 -225 -87 -390 -150 -165 -64 -448 -173 -630 -242 -181 -70
-474 -183 -650 -250 -578 -222 -1838 -706 -1925 -740 -84 -33 -483 -186 -655
-251 -49 -19 -99 -39 -110 -44 -11 -5 -123 -48 -250 -96 -126 -47 -243 -92
-260 -99 -16 -7 -102 -40 -190 -74 -88 -33 -173 -66 -190 -72 -16 -7 -32 -13
-35 -14 -3 -1 -14 -5 -25 -10 -11 -4 -78 -30 -150 -57 -72 -27 -179 -69 -240
-92 -60 -24 -132 -51 -160 -61 -27 -10 -55 -22 -61 -27 -8 -6 23 -99 102 -306
63 -163 118 -306 123 -317 5 -11 109 -281 231 -600 122 -319 237 -618 255
-665 18 -47 112 -292 210 -545 97 -253 189 -494 205 -535 89 -227 331 -856
334 -865 2 -5 7 -19 11 -30 13 -33 70 -181 130 -340 31 -82 60 -159 65 -170 4
-11 27 -69 50 -130 23 -60 46 -119 50 -130 5 -11 28 -69 50 -130 23 -60 45
-119 50 -130 4 -11 20 -51 35 -90 15 -38 134 -349 265 -690 132 -341 251 -651
265 -690 15 -38 31 -79 35 -90 11 -24 150 -386 154 -400 2 -5 6 -17 9 -25 4
-8 22 -56 41 -107 19 -51 46 -120 60 -155 37 -93 125 -324 151 -393 40 -107
136 -359 150 -390 7 -16 34 -86 60 -155 26 -69 59 -154 72 -190 14 -36 51
-132 83 -215 31 -82 196 -510 365 -950 170 -440 318 -827 331 -860 32 -86 239
-624 279 -725 62 -157 448 -1165 462 -1205 7 -22 18 -49 23 -60 5 -11 14 -32
20 -47 l9 -28 53 21 c29 12 130 50 223 86 94 36 190 73 215 83 25 10 88 34
140 54 52 19 109 41 125 47 17 7 32 13 35 14 3 1 19 7 35 14 17 6 113 44 215
82 102 39 223 86 270 104 47 18 222 85 390 149 168 64 314 121 325 126 18 8
260 101 430 165 33 12 132 51 220 85 88 34 194 75 235 91 114 42 312 118 335
128 55 23 131 53 140 55 6 1 64 23 130 48 262 103 591 230 600 232 6 2 21 8
35 13 14 6 54 21 90 33 36 13 70 26 75 30 6 4 51 21 100 39 50 18 110 41 135
51 25 10 124 48 220 84 96 37 184 71 195 75 11 5 56 23 100 40 107 41 306 117
380 146 172 66 684 262 775 297 58 22 114 44 125 48 11 5 286 111 610 235 325
124 599 230 610 234 11 5 36 15 55 21 19 7 49 19 65 26 17 7 185 72 375 144
190 73 383 147 430 165 157 61 824 317 885 340 33 12 382 146 775 298 393 151
882 339 1085 417 204 78 528 202 720 277 193 74 424 163 515 198 91 34 174 66
185 71 11 4 22 8 25 8 3 1 71 28 152 59 l147 58 -24 55 c-13 30 -25 58 -26 62
-2 8 0 3 -90 242 -38 102 -74 196 -80 210 -12 28 -662 1717 -749 1945 -125
329 -263 687 -281 730 -5 11 -49 128 -100 260 -50 132 -111 292 -136 355 -25
63 -58 149 -73 190 -15 41 -44 116 -63 165 -20 50 -65 169 -102 265 -37 96
-104 272 -150 390 -45 118 -113 294 -151 390 -37 96 -73 193 -81 215 -7 22
-18 49 -23 60 -5 11 -104 268 -220 570 -116 303 -214 559 -219 570 -11 24 -35
88 -37 95 0 3 -4 14 -9 25 -12 31 -66 170 -192 500 -63 165 -125 327 -138 360
-13 33 -103 267 -200 520 -96 253 -180 470 -185 482 -5 12 -68 177 -140 365
-72 189 -135 352 -140 363 -5 11 -20 49 -34 85 -13 36 -40 106 -59 155 -19 50
-49 128 -67 175 -18 47 -51 135 -75 195 -23 61 -82 214 -131 340 -534 1396
-774 2010 -786 2012 -7 1 -35 -8 -63 -21z"/>
</g>
</svg>
